<?xml version="1.0" encoding="UTF-8" standalone="no"?><!DOCTYPE svg PUBLIC "-//W3C//DTD SVG 1.1//EN" "http://www.w3.org/Graphics/SVG/1.1/DTD/svg11.dtd"><svg width="100%" height="100%" viewBox="0 0 291 45" version="1.1" xmlns="http://www.w3.org/2000/svg" xmlns:xlink="http://www.w3.org/1999/xlink" xml:space="preserve" xmlns:serif="http://www.serif.com/" style="fill-rule:evenodd;clip-rule:evenodd;"><g><g><g><path d="M172.16,28l0,-5.402l-0.932,0l0,-0.821l0.932,0l0,-0.662c0,-0.418 0.037,-0.728 0.111,-0.931c0.102,-0.274 0.281,-0.496 0.536,-0.665c0.256,-0.17 0.615,-0.255 1.076,-0.255c0.297,0 0.625,0.035 0.984,0.105l-0.158,0.92c-0.219,-0.039 -0.426,-0.059 -0.621,-0.059c-0.321,0 -0.547,0.069 -0.68,0.206c-0.133,0.136 -0.199,0.392 -0.199,0.767l0,0.574l1.213,0l0,0.821l-1.213,0l0,5.402l-1.049,0Z" style="fill:#222;fill-rule:nonzero;"/><path d="M179.502,25.996l1.09,0.135c-0.172,0.637 -0.491,1.131 -0.955,1.482c-0.465,0.352 -1.059,0.528 -1.782,0.528c-0.91,0 -1.632,-0.281 -2.165,-0.841c-0.533,-0.561 -0.8,-1.347 -0.8,-2.359c0,-1.046 0.27,-1.859 0.809,-2.437c0.539,-0.578 1.238,-0.867 2.098,-0.867c0.832,0 1.511,0.283 2.039,0.849c0.527,0.567 0.791,1.364 0.791,2.391c0,0.062 -0.002,0.156 -0.006,0.281l-4.641,0c0.039,0.684 0.233,1.207 0.58,1.571c0.348,0.363 0.782,0.544 1.301,0.544c0.387,0 0.717,-0.101 0.99,-0.304c0.274,-0.203 0.491,-0.528 0.651,-0.973Zm-3.463,-1.705l3.474,0c-0.046,-0.523 -0.179,-0.916 -0.398,-1.178c-0.336,-0.406 -0.771,-0.609 -1.307,-0.609c-0.484,0 -0.891,0.162 -1.221,0.486c-0.33,0.324 -0.513,0.758 -0.548,1.301Z" style="fill:#222;fill-rule:nonzero;"/><path d="M185.976,27.232c-0.39,0.332 -0.766,0.567 -1.128,0.704c-0.361,0.136 -0.749,0.205 -1.163,0.205c-0.683,0 -1.209,-0.167 -1.576,-0.501c-0.367,-0.334 -0.551,-0.761 -0.551,-1.281c0,-0.304 0.07,-0.583 0.208,-0.835c0.139,-0.252 0.321,-0.454 0.545,-0.606c0.225,-0.152 0.478,-0.268 0.759,-0.346c0.207,-0.054 0.52,-0.107 0.938,-0.158c0.851,-0.102 1.478,-0.223 1.88,-0.363c0.004,-0.145 0.006,-0.237 0.006,-0.276c0,-0.429 -0.099,-0.732 -0.298,-0.908c-0.27,-0.238 -0.67,-0.357 -1.202,-0.357c-0.496,0 -0.862,0.087 -1.098,0.261c-0.237,0.173 -0.411,0.481 -0.525,0.922l-1.031,-0.14c0.094,-0.442 0.248,-0.798 0.463,-1.07c0.215,-0.271 0.525,-0.48 0.932,-0.627c0.406,-0.146 0.877,-0.219 1.412,-0.219c0.531,0 0.963,0.062 1.295,0.187c0.332,0.125 0.576,0.282 0.732,0.472c0.156,0.189 0.266,0.429 0.328,0.718c0.035,0.179 0.053,0.504 0.053,0.972l0,1.407c0,0.98 0.022,1.6 0.067,1.86c0.045,0.26 0.134,0.509 0.267,0.747l-1.102,0c-0.109,-0.219 -0.179,-0.475 -0.211,-0.768Zm-0.088,-2.355c-0.382,0.156 -0.957,0.289 -1.722,0.398c-0.434,0.063 -0.74,0.133 -0.92,0.211c-0.18,0.078 -0.318,0.193 -0.416,0.343c-0.098,0.15 -0.147,0.317 -0.147,0.501c0,0.281 0.107,0.516 0.32,0.703c0.213,0.188 0.524,0.281 0.934,0.281c0.407,0 0.768,-0.088 1.084,-0.266c0.317,-0.178 0.549,-0.421 0.698,-0.73c0.113,-0.238 0.169,-0.589 0.169,-1.054l0,-0.387Z" style="fill:#222;fill-rule:nonzero;"/><path d="M190.892,27.057l0.153,0.931c-0.297,0.063 -0.563,0.094 -0.797,0.094c-0.383,0 -0.68,-0.061 -0.891,-0.182c-0.211,-0.121 -0.359,-0.28 -0.445,-0.477c-0.086,-0.197 -0.129,-0.612 -0.129,-1.245l0,-3.58l-0.773,0l0,-0.821l0.773,0l0,-1.541l1.049,-0.632l0,2.173l1.06,0l0,0.821l-1.06,0l0,3.638c0,0.301 0.018,0.494 0.056,0.58c0.037,0.086 0.097,0.155 0.181,0.205c0.084,0.051 0.204,0.077 0.36,0.077c0.118,0 0.272,-0.014 0.463,-0.041Z" style="fill:#222;fill-rule:nonzero;"/><path d="M191.924,28l0,-8.59l1.054,0l0,3.082c0.493,-0.57 1.114,-0.855 1.864,-0.855c0.461,0 0.861,0.091 1.201,0.272c0.34,0.182 0.583,0.433 0.729,0.753c0.147,0.32 0.22,0.785 0.22,1.395l0,3.943l-1.055,0l0,-3.943c0,-0.528 -0.114,-0.911 -0.342,-1.152c-0.229,-0.24 -0.552,-0.36 -0.97,-0.36c-0.313,0 -0.607,0.081 -0.882,0.243c-0.275,0.162 -0.472,0.382 -0.589,0.659c-0.117,0.278 -0.176,0.66 -0.176,1.149l0,3.404l-1.054,0Z" style="fill:#222;fill-rule:nonzero;"/><path d="M202.857,25.996l1.09,0.135c-0.172,0.637 -0.49,1.131 -0.955,1.482c-0.465,0.352 -1.059,0.528 -1.781,0.528c-0.91,0 -1.632,-0.281 -2.165,-0.841c-0.533,-0.561 -0.8,-1.347 -0.8,-2.359c0,-1.046 0.269,-1.859 0.809,-2.437c0.539,-0.578 1.238,-0.867 2.097,-0.867c0.832,0 1.512,0.283 2.039,0.849c0.528,0.567 0.791,1.364 0.791,2.391c0,0.062 -0.002,0.156 -0.006,0.281l-4.64,0c0.039,0.684 0.232,1.207 0.58,1.571c0.347,0.363 0.781,0.544 1.301,0.544c0.386,0 0.716,-0.101 0.99,-0.304c0.273,-0.203 0.49,-0.528 0.65,-0.973Zm-3.463,-1.705l3.475,0c-0.047,-0.523 -0.18,-0.916 -0.398,-1.178c-0.336,-0.406 -0.772,-0.609 -1.307,-0.609c-0.484,0 -0.892,0.162 -1.222,0.486c-0.33,0.324 -0.512,0.758 -0.548,1.301Z" style="fill:#222;fill-rule:nonzero;"/><path d="M205.26,28l0,-6.223l0.949,0l0,0.944c0.242,-0.442 0.466,-0.733 0.671,-0.873c0.205,-0.141 0.43,-0.211 0.676,-0.211c0.356,0 0.717,0.113 1.084,0.34l-0.363,0.978c-0.258,-0.152 -0.515,-0.228 -0.773,-0.228c-0.231,0 -0.438,0.069 -0.621,0.208c-0.184,0.138 -0.315,0.331 -0.393,0.577c-0.117,0.375 -0.176,0.785 -0.176,1.23l0,3.258l-1.054,0Z" style="fill:#222;fill-rule:nonzero;"/><path d="M209.221,30.396l-0.118,-0.99c0.231,0.063 0.432,0.094 0.604,0.094c0.234,0 0.422,-0.039 0.562,-0.117c0.141,-0.078 0.256,-0.188 0.346,-0.328c0.066,-0.106 0.174,-0.368 0.322,-0.785c0.02,-0.059 0.051,-0.145 0.094,-0.258l-2.361,-6.235l1.136,0l1.295,3.604c0.168,0.457 0.319,0.937 0.452,1.441c0.121,-0.484 0.265,-0.957 0.433,-1.418l1.33,-3.627l1.055,0l-2.367,6.328c-0.254,0.684 -0.451,1.155 -0.592,1.413c-0.188,0.347 -0.402,0.602 -0.645,0.764c-0.242,0.162 -0.531,0.243 -0.867,0.243c-0.203,0 -0.429,-0.043 -0.679,-0.129Z" style="fill:#222;fill-rule:nonzero;"/><path d="M218.59,28l0,-6.223l0.949,0l0,0.944c0.242,-0.442 0.466,-0.733 0.671,-0.873c0.205,-0.141 0.43,-0.211 0.677,-0.211c0.355,0 0.716,0.113 1.084,0.34l-0.364,0.978c-0.258,-0.152 -0.515,-0.228 -0.773,-0.228c-0.231,0 -0.438,0.069 -0.621,0.208c-0.184,0.138 -0.315,0.331 -0.393,0.577c-0.117,0.375 -0.176,0.785 -0.176,1.23l0,3.258l-1.054,0Z" style="fill:#222;fill-rule:nonzero;"/><path d="M226.857,25.996l1.09,0.135c-0.172,0.637 -0.49,1.131 -0.955,1.482c-0.465,0.352 -1.059,0.528 -1.781,0.528c-0.91,0 -1.632,-0.281 -2.165,-0.841c-0.533,-0.561 -0.8,-1.347 -0.8,-2.359c0,-1.046 0.269,-1.859 0.809,-2.437c0.539,-0.578 1.238,-0.867 2.097,-0.867c0.832,0 1.512,0.283 2.039,0.849c0.528,0.567 0.791,1.364 0.791,2.391c0,0.062 -0.002,0.156 -0.006,0.281l-4.64,0c0.039,0.684 0.232,1.207 0.58,1.571c0.347,0.363 0.781,0.544 1.301,0.544c0.386,0 0.716,-0.101 0.99,-0.304c0.273,-0.203 0.49,-0.528 0.65,-0.973Zm-3.463,-1.705l3.475,0c-0.047,-0.523 -0.18,-0.916 -0.398,-1.178c-0.336,-0.406 -0.772,-0.609 -1.307,-0.609c-0.484,0 -0.892,0.162 -1.222,0.486c-0.33,0.324 -0.512,0.758 -0.548,1.301Z" style="fill:#222;fill-rule:nonzero;"/><path d="M229.271,28l0,-6.223l0.944,0l0,0.873c0.195,-0.304 0.455,-0.549 0.779,-0.735c0.324,-0.186 0.693,-0.278 1.107,-0.278c0.461,0 0.839,0.095 1.134,0.287c0.295,0.191 0.503,0.459 0.624,0.803c0.492,-0.727 1.133,-1.09 1.922,-1.09c0.617,0 1.092,0.171 1.424,0.512c0.332,0.342 0.498,0.869 0.498,1.58l0,4.271l-1.049,0l0,-3.92c0,-0.422 -0.034,-0.726 -0.102,-0.911c-0.069,-0.186 -0.193,-0.335 -0.372,-0.448c-0.18,-0.114 -0.391,-0.17 -0.633,-0.17c-0.438,0 -0.801,0.145 -1.09,0.436c-0.289,0.291 -0.434,0.757 -0.434,1.398l0,3.615l-1.054,0l0,-4.043c0,-0.469 -0.086,-0.82 -0.258,-1.055c-0.172,-0.234 -0.453,-0.351 -0.844,-0.351c-0.297,0 -0.571,0.078 -0.823,0.234c-0.252,0.156 -0.435,0.385 -0.548,0.686c-0.113,0.3 -0.17,0.734 -0.17,1.3l0,3.229l-1.055,0Z" style="fill:#222;fill-rule:nonzero;"/><path d="M239.273,20.623l0,-1.213l1.055,0l0,1.213l-1.055,0Zm0,7.377l0,-6.223l1.055,0l0,6.223l-1.055,0Z" style="fill:#222;fill-rule:nonzero;"/><path d="M241.933,28l0,-6.223l0.95,0l0,0.885c0.457,-0.683 1.117,-1.025 1.98,-1.025c0.375,0 0.72,0.067 1.034,0.202c0.315,0.135 0.55,0.311 0.706,0.53c0.157,0.219 0.266,0.479 0.328,0.779c0.04,0.196 0.059,0.538 0.059,1.026l0,3.826l-1.055,0l0,-3.785c0,-0.43 -0.041,-0.751 -0.123,-0.964c-0.082,-0.213 -0.227,-0.383 -0.436,-0.51c-0.209,-0.127 -0.454,-0.19 -0.736,-0.19c-0.449,0 -0.836,0.142 -1.163,0.428c-0.326,0.285 -0.489,0.826 -0.489,1.623l0,3.398l-1.055,0Z" style="fill:#222;fill-rule:nonzero;"/><path d="M252.644,28l0,-0.785c-0.394,0.617 -0.974,0.926 -1.74,0.926c-0.496,0 -0.952,-0.137 -1.368,-0.411c-0.416,-0.273 -0.738,-0.655 -0.967,-1.145c-0.228,-0.49 -0.343,-1.054 -0.343,-1.69c0,-0.622 0.104,-1.185 0.311,-1.691c0.207,-0.506 0.518,-0.893 0.932,-1.163c0.414,-0.27 0.877,-0.404 1.388,-0.404c0.375,0 0.709,0.079 1.002,0.237c0.293,0.158 0.531,0.364 0.715,0.618l0,-3.082l1.049,0l0,8.59l-0.979,0Zm-3.334,-3.105c0,0.796 0.168,1.392 0.504,1.787c0.336,0.394 0.733,0.591 1.19,0.591c0.461,0 0.852,-0.188 1.175,-0.565c0.322,-0.377 0.483,-0.952 0.483,-1.726c0,-0.851 -0.164,-1.476 -0.492,-1.875c-0.328,-0.398 -0.733,-0.597 -1.213,-0.597c-0.469,0 -0.861,0.191 -1.175,0.574c-0.314,0.383 -0.472,0.986 -0.472,1.811Z" style="fill:#222;fill-rule:nonzero;"/><path d="M259.541,25.996l1.09,0.135c-0.172,0.637 -0.491,1.131 -0.955,1.482c-0.465,0.352 -1.059,0.528 -1.782,0.528c-0.91,0 -1.631,-0.281 -2.165,-0.841c-0.533,-0.561 -0.799,-1.347 -0.799,-2.359c0,-1.046 0.269,-1.859 0.808,-2.437c0.539,-0.578 1.238,-0.867 2.098,-0.867c0.832,0 1.511,0.283 2.039,0.849c0.527,0.567 0.791,1.364 0.791,2.391c0,0.062 -0.002,0.156 -0.006,0.281l-4.641,0c0.039,0.684 0.233,1.207 0.58,1.571c0.348,0.363 0.782,0.544 1.301,0.544c0.387,0 0.717,-0.101 0.99,-0.304c0.274,-0.203 0.491,-0.528 0.651,-0.973Zm-3.463,-1.705l3.475,0c-0.047,-0.523 -0.18,-0.916 -0.399,-1.178c-0.336,-0.406 -0.771,-0.609 -1.307,-0.609c-0.484,0 -0.891,0.162 -1.221,0.486c-0.33,0.324 -0.513,0.758 -0.548,1.301Z" style="fill:#222;fill-rule:nonzero;"/><path d="M261.943,28l0,-6.223l0.949,0l0,0.944c0.243,-0.442 0.466,-0.733 0.671,-0.873c0.205,-0.141 0.431,-0.211 0.677,-0.211c0.356,0 0.717,0.113 1.084,0.34l-0.363,0.978c-0.258,-0.152 -0.516,-0.228 -0.774,-0.228c-0.23,0 -0.437,0.069 -0.621,0.208c-0.183,0.138 -0.314,0.331 -0.392,0.577c-0.118,0.375 -0.176,0.785 -0.176,1.23l0,3.258l-1.055,0Z" style="fill:#222;fill-rule:nonzero;"/><path d="M265.529,26.143l1.043,-0.164c0.059,0.417 0.222,0.738 0.489,0.96c0.268,0.223 0.642,0.334 1.122,0.334c0.485,0 0.844,-0.098 1.079,-0.295c0.234,-0.198 0.351,-0.429 0.351,-0.695c0,-0.238 -0.103,-0.426 -0.31,-0.562c-0.145,-0.094 -0.504,-0.213 -1.079,-0.358c-0.773,-0.195 -1.309,-0.364 -1.608,-0.507c-0.299,-0.142 -0.525,-0.339 -0.68,-0.591c-0.154,-0.252 -0.231,-0.531 -0.231,-0.835c0,-0.278 0.063,-0.534 0.19,-0.771c0.127,-0.236 0.3,-0.432 0.519,-0.589c0.164,-0.121 0.388,-0.223 0.671,-0.307c0.283,-0.084 0.587,-0.126 0.911,-0.126c0.488,0 0.917,0.07 1.286,0.211c0.369,0.14 0.642,0.331 0.817,0.571c0.176,0.24 0.297,0.561 0.364,0.964l-1.032,0.14c-0.046,-0.32 -0.182,-0.57 -0.407,-0.75c-0.224,-0.179 -0.542,-0.269 -0.952,-0.269c-0.484,0 -0.83,0.08 -1.037,0.24c-0.207,0.16 -0.311,0.348 -0.311,0.563c0,0.136 0.043,0.259 0.129,0.369c0.086,0.113 0.221,0.207 0.405,0.281c0.105,0.039 0.416,0.129 0.931,0.27c0.746,0.199 1.267,0.362 1.562,0.489c0.295,0.127 0.526,0.311 0.694,0.554c0.168,0.242 0.252,0.542 0.252,0.902c0,0.351 -0.102,0.682 -0.308,0.993c-0.205,0.311 -0.501,0.551 -0.887,0.721c-0.387,0.17 -0.824,0.255 -1.313,0.255c-0.808,0 -1.425,-0.168 -1.848,-0.504c-0.424,-0.336 -0.695,-0.834 -0.812,-1.494Z" style="fill:#222;fill-rule:nonzero;"/></g></g><path d="M12.454,37l-3.454,2.784l6.598,0.852l-3.299,2.364l13.701,-2.364" style="fill:none;stroke:#222;stroke-opacity:0.215686;stroke-width:0.5px;"/><path d="M51.642,31.979l0,-16.722l4.655,0c1.764,0 2.914,0.083 3.45,0.251c0.823,0.251 1.512,0.796 2.068,1.637c0.555,0.84 0.833,1.926 0.833,3.256c0,1.027 -0.16,1.89 -0.481,2.59c-0.32,0.699 -0.726,1.249 -1.22,1.648c-0.493,0.399 -0.994,0.664 -1.504,0.793c-0.693,0.159 -1.695,0.239 -3.009,0.239l-1.891,0l0,6.308l-2.901,0Zm2.901,-13.893l0,4.745l1.587,0c1.144,0 1.908,-0.087 2.294,-0.262c0.385,-0.175 0.687,-0.449 0.906,-0.822c0.219,-0.372 0.329,-0.806 0.329,-1.3c0,-0.608 -0.154,-1.11 -0.461,-1.506c-0.307,-0.395 -0.696,-0.642 -1.166,-0.741c-0.347,-0.076 -1.042,-0.114 -2.088,-0.114l-1.401,0Z" style="fill:#222;fill-rule:nonzero;"/><path d="M67.068,23.561l-2.499,-0.525c0.28,-1.171 0.764,-2.038 1.45,-2.6c0.686,-0.563 1.705,-0.845 3.058,-0.845c1.228,0 2.143,0.17 2.744,0.508c0.601,0.338 1.024,0.768 1.269,1.289c0.245,0.521 0.367,1.477 0.367,2.869l-0.029,3.741c0,1.065 0.044,1.85 0.132,2.356c0.088,0.506 0.253,1.047 0.495,1.625l-2.724,0c-0.072,-0.213 -0.16,-0.528 -0.265,-0.946c-0.046,-0.191 -0.078,-0.316 -0.098,-0.377c-0.47,0.533 -0.973,0.932 -1.509,1.198c-0.536,0.266 -1.108,0.399 -1.715,0.399c-1.072,0 -1.916,-0.338 -2.534,-1.015c-0.617,-0.677 -0.926,-1.532 -0.926,-2.567c0,-0.684 0.141,-1.294 0.422,-1.83c0.281,-0.537 0.674,-0.947 1.181,-1.232c0.506,-0.286 1.236,-0.535 2.19,-0.748c1.287,-0.281 2.179,-0.543 2.675,-0.787l0,-0.319c0,-0.616 -0.13,-1.055 -0.392,-1.318c-0.261,-0.262 -0.754,-0.393 -1.479,-0.393c-0.49,0 -0.873,0.112 -1.147,0.336c-0.274,0.225 -0.497,0.618 -0.666,1.181Zm3.684,2.601c-0.352,0.137 -0.911,0.3 -1.675,0.49c-0.765,0.19 -1.265,0.377 -1.5,0.559c-0.359,0.297 -0.539,0.673 -0.539,1.13c0,0.448 0.144,0.836 0.431,1.163c0.288,0.327 0.654,0.491 1.098,0.491c0.497,0 0.97,-0.191 1.421,-0.571c0.333,-0.289 0.552,-0.642 0.657,-1.061c0.072,-0.273 0.107,-0.794 0.107,-1.562l0,-0.639Z" style="fill:#222;fill-rule:nonzero;"/><path d="M78.808,31.979l-2.754,0l0,-12.114l2.558,0l0,1.723c0.438,-0.814 0.832,-1.35 1.181,-1.609c0.35,-0.258 0.747,-0.388 1.191,-0.388c0.627,0 1.231,0.202 1.813,0.605l-0.853,2.795c-0.464,-0.35 -0.895,-0.525 -1.293,-0.525c-0.386,0 -0.712,0.124 -0.98,0.371c-0.268,0.247 -0.479,0.694 -0.632,1.34c-0.154,0.646 -0.231,2 -0.231,4.061l0,3.741Z" style="fill:#222;fill-rule:nonzero;"/><path d="M86.619,31.979l-2.754,0l0,-12.114l2.558,0l0,1.723c0.438,-0.814 0.831,-1.35 1.181,-1.609c0.35,-0.258 0.746,-0.388 1.191,-0.388c0.627,0 1.231,0.202 1.813,0.605l-0.853,2.795c-0.464,-0.35 -0.895,-0.525 -1.293,-0.525c-0.386,0 -0.713,0.124 -0.98,0.371c-0.268,0.247 -0.479,0.694 -0.633,1.34c-0.153,0.646 -0.23,2 -0.23,4.061l0,3.741Z" style="fill:#222;fill-rule:nonzero;"/><path d="M91.157,25.751c0,-1.064 0.225,-2.095 0.676,-3.091c0.451,-0.996 1.089,-1.757 1.916,-2.281c0.826,-0.525 1.749,-0.788 2.768,-0.788c1.575,0 2.865,0.595 3.871,1.786c1.007,1.19 1.51,2.694 1.51,4.511c0,1.833 -0.508,3.352 -1.524,4.557c-1.016,1.205 -2.295,1.808 -3.837,1.808c-0.954,0 -1.864,-0.251 -2.729,-0.753c-0.866,-0.502 -1.524,-1.237 -1.975,-2.207c-0.451,-0.97 -0.676,-2.15 -0.676,-3.542Zm2.822,0.171c0,1.202 0.245,2.122 0.735,2.761c0.49,0.639 1.094,0.958 1.813,0.958c0.719,0 1.322,-0.319 1.808,-0.958c0.487,-0.639 0.73,-1.567 0.73,-2.784c0,-1.186 -0.243,-2.098 -0.73,-2.737c-0.486,-0.639 -1.089,-0.958 -1.808,-0.958c-0.719,0 -1.323,0.319 -1.813,0.958c-0.49,0.639 -0.735,1.559 -0.735,2.76Z" style="fill:#222;fill-rule:nonzero;"/><path d="M108.826,19.865l0,2.555l-1.881,0l0,4.883c0,0.988 0.018,1.564 0.054,1.728c0.036,0.163 0.117,0.298 0.245,0.405c0.127,0.106 0.282,0.159 0.465,0.159c0.255,0 0.624,-0.102 1.108,-0.308l0.235,2.487c-0.64,0.319 -1.366,0.479 -2.176,0.479c-0.496,0 -0.944,-0.097 -1.342,-0.291c-0.399,-0.194 -0.691,-0.445 -0.878,-0.753c-0.186,-0.308 -0.315,-0.724 -0.387,-1.249c-0.058,-0.372 -0.088,-1.125 -0.088,-2.258l0,-5.282l-1.264,0l0,-2.555l1.264,0l0,-2.407l2.764,-1.87l0,4.277l1.881,0Z" style="fill:#222;fill-rule:nonzero;"/><path d="M110.757,31.979l0,-16.722l4.655,0c1.764,0 2.914,0.083 3.45,0.251c0.823,0.251 1.512,0.796 2.068,1.637c0.555,0.84 0.833,1.926 0.833,3.256c0,1.027 -0.16,1.89 -0.48,2.59c-0.321,0.699 -0.727,1.249 -1.221,1.648c-0.493,0.399 -0.994,0.664 -1.504,0.793c-0.692,0.159 -1.695,0.239 -3.009,0.239l-1.891,0l0,6.308l-2.901,0Zm2.901,-13.893l0,4.745l1.588,0c1.143,0 1.907,-0.087 2.293,-0.262c0.385,-0.175 0.688,-0.449 0.906,-0.822c0.219,-0.372 0.329,-0.806 0.329,-1.3c0,-0.608 -0.154,-1.11 -0.461,-1.506c-0.307,-0.395 -0.696,-0.642 -1.166,-0.741c-0.346,-0.076 -1.042,-0.114 -2.088,-0.114l-1.401,0Z" style="fill:#222;fill-rule:nonzero;"/><path d="M126.183,23.561l-2.499,-0.525c0.281,-1.171 0.764,-2.038 1.45,-2.6c0.686,-0.563 1.705,-0.845 3.058,-0.845c1.228,0 2.143,0.17 2.744,0.508c0.601,0.338 1.024,0.768 1.269,1.289c0.245,0.521 0.367,1.477 0.367,2.869l-0.029,3.741c0,1.065 0.044,1.85 0.132,2.356c0.089,0.506 0.254,1.047 0.495,1.625l-2.724,0c-0.072,-0.213 -0.16,-0.528 -0.265,-0.946c-0.046,-0.191 -0.078,-0.316 -0.098,-0.377c-0.47,0.533 -0.973,0.932 -1.509,1.198c-0.536,0.266 -1.107,0.399 -1.715,0.399c-1.072,0 -1.916,-0.338 -2.533,-1.015c-0.618,-0.677 -0.927,-1.532 -0.927,-2.567c0,-0.684 0.141,-1.294 0.422,-1.83c0.281,-0.537 0.674,-0.947 1.181,-1.232c0.506,-0.286 1.236,-0.535 2.19,-0.748c1.287,-0.281 2.179,-0.543 2.676,-0.787l0,-0.319c0,-0.616 -0.131,-1.055 -0.392,-1.318c-0.262,-0.262 -0.755,-0.393 -1.48,-0.393c-0.49,0 -0.872,0.112 -1.147,0.336c-0.274,0.225 -0.496,0.618 -0.666,1.181Zm3.685,2.601c-0.353,0.137 -0.912,0.3 -1.676,0.49c-0.765,0.19 -1.264,0.377 -1.5,0.559c-0.359,0.297 -0.539,0.673 -0.539,1.13c0,0.448 0.144,0.836 0.432,1.163c0.287,0.327 0.653,0.491 1.097,0.491c0.497,0 0.97,-0.191 1.421,-0.571c0.333,-0.289 0.552,-0.642 0.657,-1.061c0.072,-0.273 0.108,-0.794 0.108,-1.562l0,-0.639Z" style="fill:#222;fill-rule:nonzero;"/><path d="M144.754,31.979l-2.754,0l0,-6.182c0,-1.308 -0.058,-2.154 -0.176,-2.538c-0.118,-0.384 -0.309,-0.683 -0.573,-0.896c-0.265,-0.213 -0.584,-0.319 -0.956,-0.319c-0.477,0 -0.905,0.152 -1.284,0.456c-0.379,0.304 -0.638,0.707 -0.779,1.209c-0.14,0.502 -0.211,1.43 -0.211,2.784l0,5.486l-2.753,0l0,-12.114l2.557,0l0,1.78c0.909,-1.369 2.052,-2.054 3.431,-2.054c0.607,0 1.162,0.128 1.666,0.383c0.503,0.254 0.883,0.579 1.141,0.975c0.258,0.395 0.438,0.844 0.539,1.346c0.102,0.502 0.152,1.22 0.152,2.156l0,7.528Z" style="fill:#222;fill-rule:nonzero;"/><path d="M153.574,28.124l2.744,0.536c-0.352,1.171 -0.909,2.063 -1.67,2.675c-0.762,0.612 -1.714,0.918 -2.857,0.918c-1.81,0 -3.149,-0.688 -4.018,-2.065c-0.686,-1.102 -1.029,-2.494 -1.029,-4.174c0,-2.008 0.45,-3.58 1.352,-4.717c0.902,-1.137 2.042,-1.706 3.42,-1.706c1.549,0 2.771,0.595 3.666,1.786c0.895,1.19 1.323,3.013 1.283,5.469l-6.899,0c0.02,0.951 0.242,1.69 0.667,2.219c0.424,0.528 0.953,0.793 1.587,0.793c0.431,0 0.794,-0.137 1.088,-0.411c0.294,-0.274 0.516,-0.715 0.666,-1.323Zm0.157,-3.24c-0.019,-0.928 -0.225,-1.633 -0.617,-2.116c-0.392,-0.483 -0.869,-0.724 -1.431,-0.724c-0.601,0 -1.098,0.255 -1.49,0.764c-0.392,0.51 -0.584,1.202 -0.578,2.076l4.116,0Z" style="fill:#222;fill-rule:nonzero;"/><rect x="158.71" y="15.257" width="2.754" height="16.723" style="fill:#222;fill-rule:nonzero;"/><path d="M42.273,4c-14.786,0 -26.947,11.078 -28.236,25.157c2.457,-3.374 5.466,-6.621 9.223,-10.354c0.282,-0.28 0.742,-0.284 1.029,-0.01c0.286,0.273 0.29,0.722 0.01,1.001c-0.906,0.901 -1.802,1.811 -2.688,2.732l-0.175,0.184c-4.643,4.842 -7.962,9.057 -10.372,14.291c-0.042,0.091 -0.063,0.19 -0.063,0.291c0,0.281 0.169,0.536 0.428,0.646c0.362,0.159 0.791,0 0.963,-0.356c0.852,-1.833 1.846,-3.596 2.974,-5.273c10.159,-0.253 19.406,-5.757 24.252,-14.515c0.121,-0.219 0.115,-0.487 -0.016,-0.7c-0.135,-0.214 -0.372,-0.345 -0.625,-0.344l-2.694,0l4.83,-2.689c0.152,-0.084 0.269,-0.22 0.328,-0.384c1.026,-2.879 1.553,-5.912 1.559,-8.969c-0.005,-0.394 -0.333,-0.713 -0.727,-0.708Z" style="fill:#47d5fe;"/></g></svg>